<?xml version="1.0" encoding="utf-8"?>
<svg height="2160" version="1.1" width="2880" xmlns="http://www.w3.org/2000/svg" xmlns:xlink="http://www.w3.org/1999/xlink">
  <path d="M0.0,0.0 L288.0,0.0 L288.0,216.0 L0.0,216.0 Z M0.0,0.0 " fill="rgba(27,161,236,1.0)" stroke="none" stroke-dasharray="none" stroke-linecap="inherit" stroke-linejoin="inherit" stroke-width="1" transform="matrix(10,0,0,-10,0,2160)"/>
  <path d="M0.0,0.0 L-1.0,43.5 L-1.0,94.0 L-2.0,132.5 L0.0,190.0 L60.5,191.0 L138.0,191.0 L198.5,191.0 L262.0,190.0 L263.0,132.5 L262.0,90.0 L262.0,0.0 L190.5,-1.0 L133.0,1.0 Z M0.0,0.0 " fill="rgba(254,223,53,1.0)" stroke="none" stroke-dasharray="none" stroke-linecap="inherit" stroke-linejoin="inherit" stroke-width="1" transform="matrix(10,0,0,-10,130,2030)"/>
  <text fill="rgba(27,161,236,1.0)" font-family="StorkText-Regular" font-size="12" stroke="none" stroke-dasharray="none" stroke-linecap="inherit" stroke-linejoin="inherit" stroke-width="1" text-anchor="start" transform="matrix(10,0,0,10,130,1730)">
    <tspan x="63.17" y="14.0">
      The Font Bureau, Inc.
    </tspan>
  </text>
  <text fill="rgba(252,15,60,1.0)" font-family="StillaSHOP-Regular" font-size="63.7450199203" stroke="none" stroke-dasharray="none" stroke-linecap="inherit" stroke-linejoin="inherit" stroke-width="1" text-anchor="start" transform="matrix(10,0,0,10,230.0,795.565678238)">
    <tspan x="0.0" y="-10.5">
      David
    </tspan>
  </text>
</svg>